<?xml version="1.0" encoding="UTF-8" standalone="no"?>
<!-- Created with Inkscape (http://www.inkscape.org/) -->

<svg
   xmlns:dc="http://purl.org/dc/elements/1.1/"
   xmlns:cc="http://creativecommons.org/ns#"
   xmlns:rdf="http://www.w3.org/1999/02/22-rdf-syntax-ns#"
   xmlns:svg="http://www.w3.org/2000/svg"
   xmlns="http://www.w3.org/2000/svg"
   xmlns:sodipodi="http://sodipodi.sourceforge.net/DTD/sodipodi-0.dtd"
   xmlns:inkscape="http://www.inkscape.org/namespaces/inkscape"
   width="1152"
   height="1468"
   id="svg54126"
   version="1.1"
   inkscape:version="0.48.5 r10040"
   sodipodi:docname="assassinscreedorigins_logo.svg"
   style="enable-background:new"
   inkscape:export-filename="C:\Users\Rafael\Pictures\Simple\assassinscreedorigins_logo.png"
   inkscape:export-xdpi="90"
   inkscape:export-ydpi="90">
  <defs
     id="defs54128">
    <filter
       inkscape:collect="always"
       id="filter55016"
       color-interpolation-filters="sRGB">
      <feBlend
         inkscape:collect="always"
         mode="lighten"
         in2="BackgroundImage"
         id="feBlend55018" />
    </filter>
    <filter
       inkscape:collect="always"
       id="filter55036"
       color-interpolation-filters="sRGB">
      <feGaussianBlur
         inkscape:collect="always"
         stdDeviation="8.9079274"
         id="feGaussianBlur55038" />
    </filter>
  </defs>
  <sodipodi:namedview
     id="base"
     pagecolor="#ffffff"
     bordercolor="#666666"
     borderopacity="1.0"
     inkscape:pageopacity="0.0"
     inkscape:pageshadow="2"
     inkscape:zoom="0.175"
     inkscape:cx="764.88736"
     inkscape:cy="645.60473"
     inkscape:document-units="px"
     inkscape:current-layer="layer7"
     showgrid="false"
     inkscape:object-nodes="true"
     showguides="true"
     inkscape:guide-bbox="true"
     inkscape:snap-global="true"
     inkscape:window-width="1366"
     inkscape:window-height="705"
     inkscape:window-x="-8"
     inkscape:window-y="-8"
     inkscape:window-maximized="1" />
  <metadata
     id="metadata54131">
    <rdf:RDF>
      <cc:Work
         rdf:about="">
        <dc:format>image/svg+xml</dc:format>
        <dc:type
           rdf:resource="http://purl.org/dc/dcmitype/StillImage" />
        <dc:title></dc:title>
      </cc:Work>
    </rdf:RDF>
  </metadata>
  <g
     inkscape:groupmode="layer"
     id="layer7"
     inkscape:label="Layer#1"
     style="display:inline"
     transform="translate(0,-692)">
    <path
       style="fill:#c2a04a;fill-opacity:1;stroke:none"
       d="M 576,692.03128 306.2812,1369.8125 C 254.1462,1500.8254 184.707,1551.45 123.2188,1558.4375 61.7305,1565.4246 0.25,1527.7187 0.25,1527.7187 c 0,0 32.125,79.6548 32.125,143.9376 0,64.2835 -29.3438,132.75 -29.3438,132.75 0,0 16.7638,-18.1746 58.6876,-11.1876 41.9239,6.9874 50.3173,44.7149 180.2812,128.5626 129.9643,83.8478 287.875,97.8437 287.875,97.8437 0,0 -130.1159,-43.3811 -208.75,-104.5313 32.1215,6.6258 72.3521,4.5568 122.3125,-12.5624 51.9624,-17.8051 95.5745,-40.9699 132.5625,-65.125 96.6369,-63.1093 143.6875,-133.125 143.6875,-133.125 1.3123,34.1308 -11.7476,89.2115 -24.2187,132.5312 -12.4713,43.3208 -1.3445,87.3125 3.9062,87.3125 5.251,0 35.4035,-56.4597 47.875,-101.0937 12.4709,-44.6323 45.375,-52.4688 45.375,-52.4688 0,0 -37.4372,-5.9286 -35.4688,-55.1562 0.4271,-10.665 5.8533,-23.202 12.2813,-34.4376 14.2918,-8.5117 24.9111,-17.3682 33.6563,-25.2812 10.726,-9.7047 31.1872,-13.0569 52.1874,-13.5312 50.8222,132.9704 60.5721,200.7383 -13.75,264.25 -76.8607,65.6806 -219.4062,113.2187 -219.4062,113.2187 0,0 157.9107,-13.9959 287.875,-97.8437 129.964,-83.8477 138.3571,-121.5752 180.2812,-128.5626 41.9237,-6.987 58.6876,11.1876 58.6876,11.1876 0,0 -29.3438,-68.4665 -29.3438,-132.75 0,-64.2828 32.125,-143.9376 32.125,-143.9376 0,0 -61.4806,37.7059 -122.9688,30.7188 -61.4881,-6.9875 -130.9274,-57.6121 -183.0624,-188.625 L 576,692.03128 z m 0,233.375 234.7188,602.28122 C 737.9551,1496.3808 656.0563,1474.4905 576,1472.7187 l 0,-0.031 c -4.1293,-0.092 -8.2887,-0.4562 -12.4062,-0.4375 -14.3352,0.062 -28.6068,0.804 -42.7188,2.2813 -79.2763,8.2961 -146.1563,35.9354 -179.0312,51.6874 L 576,925.40628 z m 0,588.18742 c 19.8872,0.037 40.5456,0.7888 63.0625,3 84.0932,8.2595 149.9972,37.439 191.0625,60.9376 l 10.1562,26 c -96.418,-6.0512 -151.3726,-61.8215 -260.375,-60.75 -1.2813,0 -2.6205,0.193 -3.9062,0.2187 -102.8494,1.9946 -219.1462,42.8565 -264.1562,60.2187 l 9.8124,-25.1562 C 404.8038,1539.119 475.9922,1513.4086 576,1513.5937 z m 43.75,70.1876 c 55.8365,8.4842 110.7822,30.7029 149.2188,48.25 0,0 -60.4138,52.5012 -189.0626,48.5624 -1.3457,-0.04 -2.5679,-0.1709 -3.9062,-0.2187 -126.6161,-4.7306 -220.5312,-48.3437 -220.5312,-48.3437 0,0 89.2972,-24.9648 170.6874,-45.9688 l 0.094,0 c -1.3725,4.6509 -2.0625,9.6073 -2.0625,14.7188 0,27.94 22.0922,50.6562 49.2813,50.6562 0.8681,0 1.674,-0.2022 2.5312,-0.25 l 0,0.031 c 25.9819,-1.3868 46.625,-23.3895 46.625,-50.4374 0,-5.9814 -1.0199,-11.6737 -2.875,-17 z m -326.0625,66.4062 c 60.4656,29.5047 181.2041,64.0294 282.3125,67.875 10.6345,0.4043 21.3688,1.0136 31.4688,0.6875 13.7062,-0.4414 26.3804,-1.2576 38.25,-2.4063 -10.6606,14.5966 -30.7103,36.8303 -69.7188,69.5938 -4.8865,4.1042 -8.9277,7.7237 -14.4688,12.1875 -70.8879,57.1042 -140.428,78.8124 -192.2812,81.4375 -51.8531,2.6256 -84.656,-24.3056 -86.625,-62.375 -1.9691,-38.0697 32.75,-48.5938 32.75,-48.5938 0,0 -8.5023,11.123 3.3125,26.875 11.8147,15.7533 41.3742,9.1901 45.9687,-4.5937 4.5945,-13.7838 13.8234,-61.6576 -45.25,-59.0313 -24.3911,1.0838 -43.3205,9.2228 -57.125,18.4063 6.0963,-28.8341 16.9449,-61.6975 31.4063,-100.0625 z M 18.7188,1871.4063 c 0,0 73.0777,95.8538 191.6562,174.9062 118.5788,79.0525 225.307,113.6562 365.625,113.6562 140.3183,0 247.015,-34.6037 365.5938,-113.6562 118.5785,-79.0524 191.6874,-174.9062 191.6874,-174.9062 0,0 -39.4747,39.5436 -115.5624,105.75 -76.0881,66.2066 -233.2072,132.4051 -326.0938,124.5 C 598.7384,2093.751 576,2049.2813 576,2049.2813 c 0,0 -22.707,44.4696 -115.5938,52.375 -92.8866,7.9051 -250.037,-58.2933 -326.125,-124.5 -76.0876,-66.2064 -115.5624,-105.75 -115.5624,-105.75 z"
       id="path54841"
       inkscape:connector-curvature="0" />
  </g>
</svg>
